REM DIRINDEX 1\2,1\3,1\4,1\5,1\6,1\7,1\8
REM DIRNAME folder01,folder02,folder03,folder04,folder05,folder06,folder07,folder08
TITLE ""
FILE "001 でる文61.mp3" MP3
  TRACK 01 AUDIO
    TITLE "8:cjc150_2900"
    INDEX 01 00:00:00
  TRACK 02 AUDIO
    TITLE "0:"
    INDEX 01 00:01:46
  TRACK 03 AUDIO
    TITLE "8:cjc150_2901"
    INDEX 01 00:02:04
  TRACK 04 AUDIO
    TITLE "0:"
    INDEX 01 00:03:70
  TRACK 05 AUDIO
    TITLE "2:cjc150_2902"
    INDEX 01 00:04:64
  TRACK 06 AUDIO
    TITLE "0:"
    INDEX 01 00:12:09
  TRACK 07 AUDIO
    TITLE "8:cjc150_2903"
    INDEX 01 00:13:43
  TRACK 08 AUDIO
    TITLE "0:"
    INDEX 01 00:16:20
  TRACK 09 AUDIO
    TITLE "3:cjc150_2904"
    INDEX 01 00:17:02
  TRACK 10 AUDIO
    TITLE "3:cjc150_2905"
    INDEX 01 00:18:70
  TRACK 11 AUDIO
    TITLE "3:cjc150_2906"
    INDEX 01 00:20:57
  TRACK 12 AUDIO
    TITLE "3:cjc150_2907"
    INDEX 01 00:22:27
  TRACK 13 AUDIO
    TITLE "3:cjc150_2908"
    INDEX 01 00:23:61
  TRACK 14 AUDIO
    TITLE "3:cjc150_2909"
    INDEX 01 00:26:58
  TRACK 15 AUDIO
    TITLE "3:cjc150_2910"
    INDEX 01 00:29:48
  TRACK 16 AUDIO
    TITLE "3:cjc150_2911"
    INDEX 01 00:31:16
  TRACK 17 AUDIO
    TITLE "3:cjc150_2912"
    INDEX 01 00:32:52
  TRACK 18 AUDIO
    TITLE "3:cjc150_2913"
    INDEX 01 00:34:57
  TRACK 19 AUDIO
    TITLE "8:cjc150_2914"
    INDEX 01 00:36:64
  TRACK 20 AUDIO
    TITLE "0:"
    INDEX 01 00:39:39
  TRACK 21 AUDIO
    TITLE "4:cjc150_2915"
    INDEX 01 00:40:28
  TRACK 22 AUDIO
    TITLE "4:cjc150_2916"
    INDEX 01 00:43:11
  TRACK 23 AUDIO
    TITLE "4:cjc150_2917"
    INDEX 01 00:46:31
  TRACK 24 AUDIO
    TITLE "4:cjc150_2918"
    INDEX 01 00:49:29
  TRACK 25 AUDIO
    TITLE "4:cjc150_2919"
    INDEX 01 00:52:59
  TRACK 26 AUDIO
    TITLE "4:cjc150_2920"
    INDEX 01 00:55:42
  TRACK 27 AUDIO
    TITLE "8:cjc150_2921"
    INDEX 01 00:58:60
  TRACK 28 AUDIO
    TITLE "0:"
    INDEX 01 01:01:52
  TRACK 29 AUDIO
    TITLE "5:cjc150_2922"
    INDEX 01 01:02:42
  TRACK 30 AUDIO
    TITLE "5:cjc150_2923"
    INDEX 01 01:04:11
  TRACK 31 AUDIO
    TITLE "5:cjc150_2924"
    INDEX 01 01:06:61
  TRACK 32 AUDIO
    TITLE "5:cjc150_2925"
    INDEX 01 01:08:54
  TRACK 33 AUDIO
    TITLE "5:cjc150_2926"
    INDEX 01 01:10:37
  TRACK 34 AUDIO
    TITLE "5:cjc150_2927"
    INDEX 01 01:12:13
  TRACK 35 AUDIO
    TITLE "5:cjc150_2928"
    INDEX 01 01:14:51
  TRACK 36 AUDIO
    TITLE "5:cjc150_2929"
    INDEX 01 01:16:20
  TRACK 37 AUDIO
    TITLE "5:cjc150_2930"
    INDEX 01 01:17:67
  TRACK 38 AUDIO
    TITLE "5:cjc150_2931"
    INDEX 01 01:20:10
  TRACK 39 AUDIO
    TITLE "5:cjc150_2932"
    INDEX 01 01:23:65
  TRACK 40 AUDIO
    TITLE "5:cjc150_2933"
    INDEX 01 01:26:62
  TRACK 41 AUDIO
    TITLE "5:cjc150_2934"
    INDEX 01 01:29:50
  TRACK 42 AUDIO
    TITLE "5:cjc150_2935"
    INDEX 01 01:31:47
  TRACK 43 AUDIO
    TITLE "5:cjc150_2936"
    INDEX 01 01:33:66
  TRACK 44 AUDIO
    TITLE "5:cjc150_2937"
    INDEX 01 01:35:35
  TRACK 45 AUDIO
    TITLE "5:cjc150_2938"
    INDEX 01 01:36:62
  TRACK 46 AUDIO
    TITLE "5:cjc150_2939"
    INDEX 01 01:38:73
  TRACK 47 AUDIO
    TITLE "5:cjc150_2940"
    INDEX 01 01:41:59
  TRACK 48 AUDIO
    TITLE "5:cjc150_2941"
    INDEX 01 01:43:64
  TRACK 49 AUDIO
    TITLE "8:cjc150_2942"
    INDEX 01 01:45:59
  TRACK 50 AUDIO
    TITLE "0:"
    INDEX 01 01:48:40
  TRACK 51 AUDIO
    TITLE "6:cjc150_2943"
    INDEX 01 01:49:20
  TRACK 52 AUDIO
    TITLE "6:cjc150_2944"
    INDEX 01 01:51:64
  TRACK 53 AUDIO
    TITLE "6:cjc150_2945"
    INDEX 01 01:55:40
  TRACK 54 AUDIO
    TITLE "6:cjc150_2946"
    INDEX 01 01:58:23
  TRACK 55 AUDIO
    TITLE "6:cjc150_2947"
    INDEX 01 02:01:01
  TRACK 56 AUDIO
    TITLE "6:cjc150_2948"
    INDEX 01 02:03:20
  TRACK 57 AUDIO
    TITLE "6:cjc150_2949"
    INDEX 01 02:07:18
  TRACK 58 AUDIO
    TITLE "6:cjc150_2950"
    INDEX 01 02:10:12
  TRACK 59 AUDIO
    TITLE "6:cjc150_2951"
    INDEX 01 02:13:14
  TRACK 60 AUDIO
    TITLE "6:cjc150_2952"
    INDEX 01 02:15:72
  TRACK 61 AUDIO
    TITLE "6:cjc150_2953"
    INDEX 01 02:19:40
  TRACK 62 AUDIO
    TITLE "6:cjc150_2954"
    INDEX 01 02:22:23
  TRACK 63 AUDIO
    TITLE "8:cjc150_2955"
    INDEX 01 02:24:44
  TRACK 64 AUDIO
    TITLE "0:"
    INDEX 01 02:26:21
  TRACK 65 AUDIO
    TITLE "7:cjc150_2956"
    INDEX 01 02:27:07
  TRACK 66 AUDIO
    TITLE "7:cjc150_2957"
    INDEX 01 02:34:24
  TRACK 67 AUDIO
    TITLE "0:"
    INDEX 01 02:41:30
